<svg width="1200" height="260" viewBox="0 0 1200 260" fill="none" xmlns="http://www.w3.org/2000/svg">
  <defs>
    <linearGradient id="bg" x1="0" y1="0" x2="1200" y2="260" gradientUnits="userSpaceOnUse">
      <stop stop-color="#D61832"/>
      <stop offset="0.5" stop-color="#B70E2D"/>
      <stop offset="1" stop-color="#7A0B1D"/>
    </linearGradient>
    <linearGradient id="gold" x1="0" y1="0" x2="1" y2="1">
      <stop stop-color="#FDE790"/>
      <stop offset="0.5" stop-color="#F2C94C"/>
      <stop offset="1" stop-color="#D9A521"/>
    </linearGradient>
    <filter id="shadow" x="-10%" y="-10%" width="120%" height="140%">
      <feDropShadow dx="0" dy="10" stdDeviation="10" flood-color="#000000" flood-opacity="0.18"/>
    </filter>
  </defs>

  <g filter="url(#shadow)">
    <rect x="20" y="30" width="1160" height="200" rx="20" fill="url(#bg)"/>
    <rect x="40" y="45" width="1120" height="170" rx="14" stroke="url(#gold)" stroke-width="4"/>
  </g>

  <g transform="translate(75 54)">
    <circle cx="55" cy="65" r="52" fill="#1A6F51" stroke="url(#gold)" stroke-width="6"/>
    <circle cx="55" cy="65" r="42" fill="#123C2E" opacity="0.8"/>
    <circle cx="55" cy="65" r="13" fill="#EFE0A5"/>
    <g stroke="#EFE0A5" stroke-width="3" stroke-linecap="round">
      <path d="M55 9V27"/>
      <path d="M55 103V121"/>
      <path d="M9 65H27"/>
      <path d="M83 65H101"/>
      <path d="M24 24L35 35"/>
      <path d="M76 76L87 87"/>
      <path d="M24 106L35 95"/>
      <path d="M76 54L87 43"/>
    </g>
    <g fill="#FDE790" opacity="0.96">
      <circle cx="55" cy="65" r="5"/>
      <circle cx="55" cy="28" r="5"/>
      <circle cx="55" cy="102" r="5"/>
      <circle cx="22" cy="65" r="5"/>
      <circle cx="88" cy="65" r="5"/>
      <circle cx="31" cy="36" r="5"/>
      <circle cx="79" cy="94" r="5"/>
      <circle cx="31" cy="94" r="5"/>
      <circle cx="79" cy="36" r="5"/>
    </g>
    <path d="M55 42C65 52 71 70 67 84C62 98 49 108 35 108C28 108 20 105 15 100C16 82 30 67 55 42Z" fill="#E3F3E7" opacity="0.22"/>
    <path d="M40 47C34 64 34 83 46 97C55 108 68 112 79 107C77 92 72 74 59 58C53 50 46 46 40 47Z" fill="#D8F0CB" opacity="0.28"/>
  </g>

  <g fill="url(#gold)">
    <text x="190" y="128" font-size="52" font-family="Georgia, 'Times New Roman', serif" font-weight="700" letter-spacing="1.2">SRI AUROBINDO MIRA</text>
    <text x="280" y="182" font-size="42" font-family="Tahoma, Arial, sans-serif" font-weight="700" letter-spacing="10">UNIVERSAL SCHOOL</text>
  </g>
</svg>
